<svg xmlns="http://www.w3.org/2000/svg" width="186" height="186" viewBox="0 0 186 186"><g><g><path fill="#ebbb11" d="M92.827.345c51.268 0 92.828 41.56 92.828 92.827 0 51.268-41.56 92.828-92.828 92.828C41.56 186 0 144.44 0 93.172 0 41.905 41.56.345 92.827.345z"/></g><g><path fill="#fff" d="M94.557 47.023c3.52 0 6.394 2.432 7.024 5.757h.185l23.08 25.963h-11.55L97.36 60.806c-.877.364-1.803.635-2.804.635-.986 0-1.93-.27-2.788-.635L75.816 78.743H64.284L87.348 52.78h.183c.65-3.325 3.522-5.757 7.026-5.757zm-41.803 37.48h86.51a5.75 5.75 0 0 1 5.757 5.775v2.883c0 3.043-2.337 5.437-5.306 5.678l-9.112 31.806c-2.889 5.771-5.757 5.771-8.646 5.771H70.041c-2.869 0-5.757 0-8.644-5.771l-9.094-31.806c-2.989-.241-5.324-2.635-5.324-5.678v-2.883a5.764 5.764 0 0 1 5.775-5.775zm16.22 14.419c-3.198 0-5.28 2.407-4.606 5.406l4.055 17.94c.678 3.014 3.832 5.49 7.025 5.49H76.9c3.198 0 5.268-2.476 4.59-5.49l-4.055-17.94c-.674-2.999-3.828-5.406-7.026-5.406zm27.035 0a5.764 5.764 0 0 0-5.775 5.774v17.302a5.752 5.752 0 0 0 5.775 5.76 5.739 5.739 0 0 0 5.757-5.76v-17.302a5.75 5.75 0 0 0-5.757-5.774zm25.582 0c-3.198 0-6.348 2.407-7.026 5.406l-4.055 17.94c-.674 3.014 1.396 5.49 4.588 5.49h1.453c3.198 0 6.348-2.476 7.026-5.49l4.055-17.94c.674-2.999-1.394-5.406-4.589-5.406z"/></g></g></svg>