<svg xmlns="http://www.w3.org/2000/svg" width="186" height="186" viewBox="0 0 186 186"><g><g><path fill="#5094f2" d="M92.827.345c51.268 0 92.828 41.56 92.828 92.827 0 51.268-41.56 92.828-92.828 92.828C41.56 186 0 144.44 0 93.172 0 41.905 41.56.345 92.827.345z"/></g><g><path fill="#fff" d="M133.69 64.116L127.12 74.66 94.332 54.246l6.563-10.544c2.897-4.657 9.024-6.084 13.686-3.185l15.927 9.916c4.657 2.899 6.078 9.026 3.182 13.683zm-39.42 63.192l-32.718-20.41 30.284-48.54 32.719 20.425zm4.416-56.66c-1.54-.958-3.522-.563-4.4.87l-21.53 34.488c-.905 1.412-.388 3.367 1.162 4.328 1.526.965 3.507.567 4.405-.84l21.525-34.5c.897-1.43.368-3.39-1.162-4.346zm11.854 7.396c-1.533-.946-3.527-.566-4.405.868L84.6 113.41c-.888 1.407-.365 3.377 1.166 4.318 1.54.975 3.52.572 4.412-.84l21.535-34.482c.888-1.448.364-3.391-1.174-4.361zm-33.73 61.198c-1.587-3.328-4.073-6.278-7.433-8.368-3.357-2.091-7.097-3.018-10.78-2.974l-.594-15.214 32.69 20.4zm-9.22-5.506a15.512 15.512 0 0 1 6.015 6.923l-14.267 6.326-.61-15.592a15.56 15.56 0 0 1 8.862 2.343z"/></g></g></svg>